<svg xmlns="http://www.w3.org/2000/svg" xmlns:xlink="http://www.w3.org/1999/xlink" version="1.1" x="0px" y="0px" viewBox="0 0 100 125" style="enable-background:new 0 0 100 100;" xml:space="preserve"><g><path d="M73.2,29H26.8c-2.6,0-4.8,2.1-4.8,4.8s2.1,4.8,4.8,4.8h46.4c2.6,0,4.8-2.1,4.8-4.8S75.8,29,73.2,29z"/><path d="M73.2,61.5H26.8c-2.6,0-4.8,2.1-4.8,4.7v0c0,2.6,2.1,4.8,4.8,4.8h46.4c2.6,0,4.8-2.1,4.8-4.8v0   C78,63.6,75.8,61.5,73.2,61.5z"/><path d="M73.2,45.2H26.8c-2.6,0-4.8,2.1-4.8,4.8s2.1,4.8,4.8,4.8h46.4c2.6,0,4.8-2.1,4.8-4.8S75.8,45.2,73.2,45.2z"/></g>
</svg>